# xmcd
#
# Track frame offsets:
#	150
#	13303
#	28514
#	49095
#	61285
#	73819
#	88106
#	104648
#	121535
#	134181
#	149470
#	166432
#	181415
#	199026
#
# Disc length: 2870 seconds
#
# Revision: 2
# Processed by: cddbd v1.5.2PL0 Copyright (c) Steve Scherf et al.
# Submitted via: audiograbber 1.83.01
#
DISCID=d30b340e
DTITLE=Various Artist - Hot Hits Country Vol. 48
DYEAR=1995
DGENRE=Country
TTITLE0=Brooks and Dunn - Whiskey Under The Bridge
TTITLE1=George Strait - Check Yes Or No
TTITLE2=Reba McEntire - On My Own
TTITLE3=Little Texas - Life Goes On
TTITLE4=Wade Hayes - Don't Stop
TTITLE5=Shenandoah - Heaven Bound (I'm Ready)
TTITLE6=Bobbie Cryner - I Just Can't Stand To Be Unhappy
TTITLE7=Lorrie Morgan - Back In Your Arms Again
TTITLE8=Clay Walker - Who Needs You Baby
TTITLE9=Pam Tillis - Deep Down
TTITLE10=Lee Roy Parnell - When A Woman Loves A Man
TTITLE11=Aaron Tippin - That's As Close As I'll Get To Loving You
TTITLE12=Tracy Byrd - Love Lessons
TTITLE13=Mark Chesnutt - Trouble
EXTD=
EXTT0=
EXTT1=
EXTT2=
EXTT3=
EXTT4=
EXTT5=
EXTT6=
EXTT7=
EXTT8=
EXTT9=
EXTT10=
EXTT11=
EXTT12=
EXTT13=
PLAYORDER=
